<?xml version="1.0" encoding="UTF-8" standalone="no"?>
<!DOCTYPE svg PUBLIC "-//W3C//DTD SVG 1.1//EN" "http://www.w3.org/Graphics/SVG/1.1/DTD/svg11.dtd">
<svg xmlns="http://www.w3.org/2000/svg" version="1.1" viewBox="0 0 666 426">
<g stroke-width="2.00" fill="none" stroke-linecap="butt">
<path stroke="#f0554d" stroke-opacity="0.988" vector-effect="non-scaling-stroke" d="
  M 396.30 52.30
  L 401.91 55.96"
/>
<path stroke="#f0554d" stroke-opacity="0.988" vector-effect="non-scaling-stroke" d="
  M 401.96 214.75
  L 398.00 219.46"
/>
<path stroke="#f0554d" stroke-opacity="0.988" vector-effect="non-scaling-stroke" d="
  M 241.96 219.75
  Q 238.31 217.83 236.29 214.25"
/>
<path stroke="#f0554d" stroke-opacity="0.988" vector-effect="non-scaling-stroke" d="
  M 236.04 58.00
  L 240.00 52.96"
/>
<path stroke="#292c29" vector-effect="non-scaling-stroke" d="
  M 259.25 243.96
  Q 258.68 245.62 260.25 245.46"
/>
<path stroke="#292c29" vector-effect="non-scaling-stroke" d="
  M 275.25 270.96
  Q 274.48 272.56 276.25 272.46"
/>
<path stroke="#6e554d" stroke-opacity="0.988" vector-effect="non-scaling-stroke" d="
  M 393.21 264.75
  Q 390.79 265.62 390.00 268.04"
/>
<path stroke="#292c29" vector-effect="non-scaling-stroke" d="
  M 370.54 276.00
  Q 371.60 274.65 369.96 274.50"
/>
<path stroke="#ff8080" vector-effect="non-scaling-stroke" d="
  M 262.74 111.89
  C 257.72 114.18 252.50 118.63 251.88 124.22
  C 251.24 129.97 254.63 132.42 258.45 135.85
  A 0.75 0.75 51.6 0 1 258.31 137.07
  Q 252.44 140.26 251.87 146.31
  C 251.28 152.65 257.11 157.65 262.40 160.10
  A 0.42 0.41 -59.8 0 1 262.56 160.72
  C 255.00 171.37 264.94 178.85 274.13 181.66
  A 0.59 0.58 4.8 0 1 274.54 182.14
  Q 274.94 185.04 275.47 186.94
  C 277.12 192.94 286.93 196.05 292.17 197.39
  C 296.71 198.56 300.39 201.92 304.49 203.01
  Q 318.73 206.80 334.75 202.75
  C 338.49 201.81 341.22 198.79 345.18 197.73
  C 352.18 195.86 363.85 192.47 363.28 182.77
  A 0.69 0.68 77.7 0 1 363.71 182.09
  C 372.56 178.73 384.19 171.43 375.69 160.90
  A 0.41 0.41 -33.2 0 1 375.82 160.28
  C 387.25 154.41 390.91 145.65 379.81 136.57
  A 0.43 0.42 44.2 0 1 379.80 135.92
  C 383.66 132.57 387.32 129.48 386.47 123.93
  C 385.67 118.68 380.71 114.40 376.05 111.98
  A 0.46 0.45 30.9 0 1 375.88 111.33
  C 383.39 100.07 372.35 93.83 363.65 90.23
  A 0.67 0.64 -75.1 0 1 363.26 89.53
  C 364.82 77.67 348.72 77.49 342.20 73.29
  C 330.94 66.04 307.72 65.56 296.92 73.12
  Q 295.48 74.13 293.76 74.52
  C 287.83 75.88 276.84 79.33 275.09 86.14
  C 274.74 87.50 275.72 89.62 274.01 90.47
  C 268.28 93.31 261.73 96.29 260.06 102.07
  Q 258.51 107.40 262.81 111.35
  A 0.33 0.32 53.6 0 1 262.74 111.89"
/>
<path stroke="#ff8080" vector-effect="non-scaling-stroke" d="
  M 336.31 72.21
  Q 319.29 67.51 302.17 71.99
  A 1.20 0.74 -4.3 0 0 301.42 72.53
  C 301.04 73.45 310.67 71.86 311.49 71.79
  Q 319.65 71.12 336.10 72.83
  C 336.46 72.87 337.29 72.48 336.31 72.21"
/>
<path stroke="#ff8080" vector-effect="non-scaling-stroke" d="
  M 340.01 78.34
  Q 342.85 75.70 339.01 75.19
  Q 319.01 72.51 299.01 75.26
  C 296.94 75.55 296.37 77.18 298.02 78.55
  C 300.97 80.99 305.12 82.18 309.26 82.53
  C 318.81 83.34 333.73 84.18 340.01 78.34"
/>
<path stroke="#ff8080" vector-effect="non-scaling-stroke" d="
  M 342.65 78.60
  Q 339.87 82.39 335.05 83.22
  C 333.80 83.44 334.44 84.07 335.04 84.14
  Q 347.83 85.62 360.24 89.06
  A 0.95 0.94 -81.4 0 0 361.44 88.17
  C 361.62 81.05 349.42 77.63 343.91 76.29
  A 0.73 0.41 10.7 0 0 343.05 76.58
  L 342.99 77.75
  A 1.79 1.01 -38.8 0 1 342.65 78.60"
/>
<path stroke="#ff8080" vector-effect="non-scaling-stroke" d="
  M 278.32 84.08
  Q 276.60 85.63 277.02 88.02
  A 1.36 1.32 -13.6 0 0 278.75 89.04
  Q 289.89 85.56 301.50 84.50
  Q 302.47 84.41 303.34 83.80
  Q 303.87 83.43 303.23 83.28
  Q 297.53 82.02 294.86 76.87
  A 0.62 0.61 71.1 0 0 294.22 76.55
  Q 287.34 77.80 281.35 81.39
  Q 281.26 81.45 278.32 84.08"
/>
<path stroke="#ff8080" vector-effect="non-scaling-stroke" d="
  M 358.80 90.94
  Q 345.24 86.62 331.00 86.00
  C 314.91 85.30 297.11 85.71 280.88 90.33
  Q 277.21 91.37 280.55 93.22
  C 297.10 102.38 316.45 102.08 335.65 100.18
  Q 348.23 98.95 358.99 92.54
  Q 360.69 91.53 358.80 90.94"
/>
<path stroke="#ff8080" vector-effect="non-scaling-stroke" d="
  M 361.21 92.63
  Q 354.41 98.29 345.81 100.26
  C 344.25 100.62 336.30 102.35 336.29 102.38
  A 0.45 0.23 6.7 0 0 336.76 102.69
  Q 355.52 103.68 373.01 110.47
  A 1.26 1.11 31.1 0 0 374.32 110.23
  C 382.67 101.43 368.54 93.65 361.81 91.95
  A 0.22 0.19 17.2 0 0 361.56 92.06
  L 361.50 92.25
  A 0.90 0.45 -26.3 0 1 361.21 92.63"
/>
<path stroke="#ff8080" vector-effect="non-scaling-stroke" d="
  M 275.89 92.25
  C 268.51 94.03 255.96 101.89 264.42 110.46
  A 0.75 0.73 -33.4 0 0 265.24 110.62
  Q 282.47 103.46 301.15 102.90
  C 301.35 102.89 302.22 102.57 301.23 102.39
  C 292.44 100.74 283.76 98.24 276.77 92.45
  A 1.01 1.01 -32.1 0 0 275.89 92.25"
/>
<path stroke="#ff8080" vector-effect="non-scaling-stroke" d="
  M 371.12 111.96
  Q 353.65 105.30 334.98 104.45
  C 310.98 103.36 287.94 103.11 267.54 111.91
  Q 266.00 112.57 267.51 113.31
  C 288.53 123.61 311.74 124.21 334.55 122.84
  Q 354.23 121.66 371.17 113.05
  Q 372.37 112.44 371.12 111.96"
/>
<path stroke="#ff8080" vector-effect="non-scaling-stroke" d="
  M 298.53 124.12
  C 287.30 122.75 274.49 119.83 265.19 113.65
  A 1.08 1.07 -37.1 0 0 264.29 113.53
  C 254.46 116.74 248.10 129.05 260.28 134.63
  A 1.47 1.20 40.8 0 0 261.46 134.66
  Q 279.66 125.63 300.02 124.91
  Q 300.71 124.88 300.33 124.39
  C 300.18 124.20 298.69 124.14 298.53 124.12"
/>
<path stroke="#ff8080" vector-effect="non-scaling-stroke" d="
  M 382.56 130.81
  C 388.29 123.28 381.31 115.75 373.98 113.64
  A 1.08 1.04 -52.9 0 0 373.09 113.78
  C 363.51 119.95 349.52 123.01 338.71 124.27
  C 337.94 124.36 338.20 124.70 338.67 124.74
  C 351.93 125.84 364.73 128.51 376.61 134.79
  A 1.21 1.11 47.5 0 0 377.53 134.87
  Q 380.20 133.93 382.56 130.81"
/>
<path stroke="#ff8080" vector-effect="non-scaling-stroke" d="
  M 374.33 135.70
  Q 367.53 132.01 360.02 130.15
  C 342.37 125.77 327.44 125.69 306.31 126.07
  C 293.31 126.31 276.19 129.32 263.52 135.76
  Q 262.27 136.39 263.55 136.96
  Q 273.18 141.18 283.48 143.33
  C 312.26 149.35 346.95 148.90 374.27 137.05
  Q 375.69 136.44 374.33 135.70"
/>
<path stroke="#ff8080" vector-effect="non-scaling-stroke" d="
  M 296.47 147.63
  C 283.88 145.44 272.85 143.35 261.21 137.72
  A 1.13 1.03 43.6 0 0 260.30 137.70
  C 254.05 140.55 251.52 147.31 255.80 153.22
  Q 258.09 156.38 263.82 158.85
  A 1.06 0.99 -46.9 0 0 264.72 158.79
  Q 279.43 150.35 296.39 148.71
  C 297.09 148.65 297.79 147.86 296.47 147.63"
/>
<path stroke="#ff8080" vector-effect="non-scaling-stroke" d="
  M 382.87 152.61
  C 386.99 147.10 383.73 140.40 378.20 137.66
  A 1.08 1.01 -43.0 0 0 377.29 137.66
  Q 363.19 144.35 347.76 146.73
  C 346.26 146.97 343.35 147.03 341.45 147.80
  Q 339.88 148.44 341.56 148.66
  C 352.31 150.06 363.61 152.55 372.83 158.78
  A 1.08 1.05 53.7 0 0 373.73 158.93
  Q 379.37 157.28 382.87 152.61"
/>
<path stroke="#ff8080" vector-effect="non-scaling-stroke" d="
  M 370.33 159.20
  Q 361.45 154.25 351.52 152.18
  C 325.43 146.75 292.22 146.87 267.79 159.05
  Q 265.79 160.05 267.89 160.82
  C 299.62 172.41 338.49 171.58 370.18 160.78
  Q 372.04 160.15 370.33 159.20"
/>
<path stroke="#ff8080" vector-effect="non-scaling-stroke" d="
  M 262.94 163.69
  C 258.48 172.51 268.25 178.51 275.48 179.97
  A 1.14 1.10 -57.1 0 0 276.38 179.76
  Q 286.89 171.92 300.08 170.89
  C 301.21 170.80 300.71 170.02 299.95 169.95
  Q 283.89 168.43 268.67 163.06
  C 266.51 162.30 264.39 160.82 262.94 163.69"
/>
<path stroke="#ff8080" vector-effect="non-scaling-stroke" d="
  M 362.97 180.01
  C 369.65 178.46 380.60 171.90 375.04 163.34
  Q 373.83 161.48 371.76 162.27
  Q 356.28 168.16 338.80 169.98
  C 338.71 169.99 337.39 170.62 338.57 170.73
  Q 351.41 171.89 361.56 179.71
  A 1.71 1.68 -32.6 0 0 362.97 180.01"
/>
<path stroke="#ff8080" vector-effect="non-scaling-stroke" d="
  M 279.24 180.32
  Q 278.74 181.38 279.82 181.67
  Q 319.15 192.31 358.13 181.86
  Q 360.16 181.31 358.58 179.93
  C 353.25 175.28 342.63 172.86 335.76 171.96
  C 318.70 169.71 295.35 170.10 280.13 179.34
  A 2.35 2.34 -2.9 0 0 279.24 180.32"
/>
<path stroke="#ff8080" vector-effect="non-scaling-stroke" d="
  M 294.81 195.49
  Q 297.93 190.05 303.72 189.06
  C 306.44 188.60 303.49 188.14 303.14 188.11
  Q 291.28 187.03 277.94 182.99
  A 0.76 0.74 -75.0 0 0 276.99 183.55
  C 275.37 191.03 288.82 194.65 293.76 195.94
  A 0.94 0.93 21.7 0 0 294.81 195.49"
/>
<path stroke="#ff8080" vector-effect="non-scaling-stroke" d="
  M 344.22 195.89
  C 348.44 194.95 364.56 190.11 360.82 183.38
  A 0.62 0.60 -23.2 0 0 360.09 183.10
  Q 347.03 187.30 333.34 188.38
  Q 332.71 188.43 333.53 188.63
  C 337.11 189.50 341.99 191.34 343.14 195.25
  A 0.92 0.92 -14.2 0 0 344.22 195.89"
/>
<path stroke="#ff8080" vector-effect="non-scaling-stroke" d="
  M 297.09 195.10
  A 1.21 1.13 -69.2 0 0 297.82 196.88
  Q 319.03 200.62 340.24 196.96
  A 0.92 0.83 2.1 0 0 340.94 196.37
  C 343.46 188.13 302.68 185.56 297.09 195.10"
/>
<path stroke="#ff8080" vector-effect="non-scaling-stroke" d="
  M 331.58 200.00
  C 319.97 200.79 313.81 200.64 301.82 199.55
  Q 301.28 199.50 301.73 199.77
  Q 303.58 200.84 306.75 201.47
  Q 322.85 204.65 337.34 199.79
  A 0.48 0.37 -16.5 0 0 337.68 199.33
  C 337.57 198.84 337.11 199.05 336.81 199.25
  C 335.02 200.46 333.20 199.89 331.58 200.00"
/>
<path stroke="#292c29" vector-effect="non-scaling-stroke" d="
  M 380.04 256.25
  Q 381.77 255.00 380.04 253.75"
/>
</g>
<path fill="#ff0000" d="
  M 396.30 52.30
  L 401.91 55.96
  L 401.96 214.75
  L 398.00 219.46
  C 396.92 219.63 395.63 219.99 394.56 219.99
  Q 318.38 220.01 242.19 220.00
  A 0.22 0.17 74.2 0 1 242.02 219.87
  L 241.96 219.75
  Q 238.31 217.83 236.29 214.25
  Q 236.15 213.75 236.15 213.25
  Q 236.02 135.63 236.04 58.00
  L 240.00 52.96
  Q 241.78 51.99 245.56 51.99
  Q 318.91 52.01 392.25 52.00
  Q 395.59 52.00 396.30 52.30
  Z
  M 262.74 111.89
  C 257.72 114.18 252.50 118.63 251.88 124.22
  C 251.24 129.97 254.63 132.42 258.45 135.85
  A 0.75 0.75 51.6 0 1 258.31 137.07
  Q 252.44 140.26 251.87 146.31
  C 251.28 152.65 257.11 157.65 262.40 160.10
  A 0.42 0.41 -59.8 0 1 262.56 160.72
  C 255.00 171.37 264.94 178.85 274.13 181.66
  A 0.59 0.58 4.8 0 1 274.54 182.14
  Q 274.94 185.04 275.47 186.94
  C 277.12 192.94 286.93 196.05 292.17 197.39
  C 296.71 198.56 300.39 201.92 304.49 203.01
  Q 318.73 206.80 334.75 202.75
  C 338.49 201.81 341.22 198.79 345.18 197.73
  C 352.18 195.86 363.85 192.47 363.28 182.77
  A 0.69 0.68 77.7 0 1 363.71 182.09
  C 372.56 178.73 384.19 171.43 375.69 160.90
  A 0.41 0.41 -33.2 0 1 375.82 160.28
  C 387.25 154.41 390.91 145.65 379.81 136.57
  A 0.43 0.42 44.2 0 1 379.80 135.92
  C 383.66 132.57 387.32 129.48 386.47 123.93
  C 385.67 118.68 380.71 114.40 376.05 111.98
  A 0.46 0.45 30.9 0 1 375.88 111.33
  C 383.39 100.07 372.35 93.83 363.65 90.23
  A 0.67 0.64 -75.1 0 1 363.26 89.53
  C 364.82 77.67 348.72 77.49 342.20 73.29
  C 330.94 66.04 307.72 65.56 296.92 73.12
  Q 295.48 74.13 293.76 74.52
  C 287.83 75.88 276.84 79.33 275.09 86.14
  C 274.74 87.50 275.72 89.62 274.01 90.47
  C 268.28 93.31 261.73 96.29 260.06 102.07
  Q 258.51 107.40 262.81 111.35
  A 0.33 0.32 53.6 0 1 262.74 111.89
  Z"
/>
<path fill="#e0ad9d" fill-opacity="0.973" d="
  M 396.30 52.30
  Q 399.81 52.74 401.91 55.96
  L 396.30 52.30
  Z"
/>
<path fill="#e0ad9d" fill-opacity="0.973" d="
  M 240.00 52.96
  L 236.04 58.00
  Q 236.68 54.48 240.00 52.96
  Z"
/>
<path fill="#ffffff" d="
  M 262.81 111.35
  Q 258.51 107.40 260.06 102.07
  C 261.73 96.29 268.28 93.31 274.01 90.47
  C 275.72 89.62 274.74 87.50 275.09 86.14
  C 276.84 79.33 287.83 75.88 293.76 74.52
  Q 295.48 74.13 296.92 73.12
  C 307.72 65.56 330.94 66.04 342.20 73.29
  C 348.72 77.49 364.82 77.67 363.26 89.53
  A 0.67 0.64 -75.1 0 0 363.65 90.23
  C 372.35 93.83 383.39 100.07 375.88 111.33
  A 0.46 0.45 30.9 0 0 376.05 111.98
  C 380.71 114.40 385.67 118.68 386.47 123.93
  C 387.32 129.48 383.66 132.57 379.80 135.92
  A 0.43 0.42 44.2 0 0 379.81 136.57
  C 390.91 145.65 387.25 154.41 375.82 160.28
  A 0.41 0.41 -33.2 0 0 375.69 160.90
  C 384.19 171.43 372.56 178.73 363.71 182.09
  A 0.69 0.68 77.7 0 0 363.28 182.77
  C 363.85 192.47 352.18 195.86 345.18 197.73
  C 341.22 198.79 338.49 201.81 334.75 202.75
  Q 318.73 206.80 304.49 203.01
  C 300.39 201.92 296.71 198.56 292.17 197.39
  C 286.93 196.05 277.12 192.94 275.47 186.94
  Q 274.94 185.04 274.54 182.14
  A 0.59 0.58 4.8 0 0 274.13 181.66
  C 264.94 178.85 255.00 171.37 262.56 160.72
  A 0.42 0.41 -59.8 0 0 262.40 160.10
  C 257.11 157.65 251.28 152.65 251.87 146.31
  Q 252.44 140.26 258.31 137.07
  A 0.75 0.75 51.6 0 0 258.45 135.85
  C 254.63 132.42 251.24 129.97 251.88 124.22
  C 252.50 118.63 257.72 114.18 262.74 111.89
  A 0.33 0.32 53.6 0 0 262.81 111.35
  Z
  M 336.31 72.21
  Q 319.29 67.51 302.17 71.99
  A 1.20 0.74 -4.3 0 0 301.42 72.53
  C 301.04 73.45 310.67 71.86 311.49 71.79
  Q 319.65 71.12 336.10 72.83
  C 336.46 72.87 337.29 72.48 336.31 72.21
  Z
  M 340.01 78.34
  Q 342.85 75.70 339.01 75.19
  Q 319.01 72.51 299.01 75.26
  C 296.94 75.55 296.37 77.18 298.02 78.55
  C 300.97 80.99 305.12 82.18 309.26 82.53
  C 318.81 83.34 333.73 84.18 340.01 78.34
  Z
  M 342.65 78.60
  Q 339.87 82.39 335.05 83.22
  C 333.80 83.44 334.44 84.07 335.04 84.14
  Q 347.83 85.62 360.24 89.06
  A 0.95 0.94 -81.4 0 0 361.44 88.17
  C 361.62 81.05 349.42 77.63 343.91 76.29
  A 0.73 0.41 10.7 0 0 343.05 76.58
  L 342.99 77.75
  A 1.79 1.01 -38.8 0 1 342.65 78.60
  Z
  M 278.32 84.08
  Q 276.60 85.63 277.02 88.02
  A 1.36 1.32 -13.6 0 0 278.75 89.04
  Q 289.89 85.56 301.50 84.50
  Q 302.47 84.41 303.34 83.80
  Q 303.87 83.43 303.23 83.28
  Q 297.53 82.02 294.86 76.87
  A 0.62 0.61 71.1 0 0 294.22 76.55
  Q 287.34 77.80 281.35 81.39
  Q 281.26 81.45 278.32 84.08
  Z
  M 358.80 90.94
  Q 345.24 86.62 331.00 86.00
  C 314.91 85.30 297.11 85.71 280.88 90.33
  Q 277.21 91.37 280.55 93.22
  C 297.10 102.38 316.45 102.08 335.65 100.18
  Q 348.23 98.95 358.99 92.54
  Q 360.69 91.53 358.80 90.94
  Z
  M 361.21 92.63
  Q 354.41 98.29 345.81 100.26
  C 344.25 100.62 336.30 102.35 336.29 102.38
  A 0.45 0.23 6.7 0 0 336.76 102.69
  Q 355.52 103.68 373.01 110.47
  A 1.26 1.11 31.1 0 0 374.32 110.23
  C 382.67 101.43 368.54 93.65 361.81 91.95
  A 0.22 0.19 17.2 0 0 361.56 92.06
  L 361.50 92.25
  A 0.90 0.45 -26.3 0 1 361.21 92.63
  Z
  M 275.89 92.25
  C 268.51 94.03 255.96 101.89 264.42 110.46
  A 0.75 0.73 -33.4 0 0 265.24 110.62
  Q 282.47 103.46 301.15 102.90
  C 301.35 102.89 302.22 102.57 301.23 102.39
  C 292.44 100.74 283.76 98.24 276.77 92.45
  A 1.01 1.01 -32.1 0 0 275.89 92.25
  Z
  M 371.12 111.96
  Q 353.65 105.30 334.98 104.45
  C 310.98 103.36 287.94 103.11 267.54 111.91
  Q 266.00 112.57 267.51 113.31
  C 288.53 123.61 311.74 124.21 334.55 122.84
  Q 354.23 121.66 371.17 113.05
  Q 372.37 112.44 371.12 111.96
  Z
  M 298.53 124.12
  C 287.30 122.75 274.49 119.83 265.19 113.65
  A 1.08 1.07 -37.1 0 0 264.29 113.53
  C 254.46 116.74 248.10 129.05 260.28 134.63
  A 1.47 1.20 40.8 0 0 261.46 134.66
  Q 279.66 125.63 300.02 124.91
  Q 300.71 124.88 300.33 124.39
  C 300.18 124.20 298.69 124.14 298.53 124.12
  Z
  M 382.56 130.81
  C 388.29 123.28 381.31 115.75 373.98 113.64
  A 1.08 1.04 -52.9 0 0 373.09 113.78
  C 363.51 119.95 349.52 123.01 338.71 124.27
  C 337.94 124.36 338.20 124.70 338.67 124.74
  C 351.93 125.84 364.73 128.51 376.61 134.79
  A 1.21 1.11 47.5 0 0 377.53 134.87
  Q 380.20 133.93 382.56 130.81
  Z
  M 374.33 135.70
  Q 367.53 132.01 360.02 130.15
  C 342.37 125.77 327.44 125.69 306.31 126.07
  C 293.31 126.31 276.19 129.32 263.52 135.76
  Q 262.27 136.39 263.55 136.96
  Q 273.18 141.18 283.48 143.33
  C 312.26 149.35 346.95 148.90 374.27 137.05
  Q 375.69 136.44 374.33 135.70
  Z
  M 296.47 147.63
  C 283.88 145.44 272.85 143.35 261.21 137.72
  A 1.13 1.03 43.6 0 0 260.30 137.70
  C 254.05 140.55 251.52 147.31 255.80 153.22
  Q 258.09 156.38 263.82 158.85
  A 1.06 0.99 -46.9 0 0 264.72 158.79
  Q 279.43 150.35 296.39 148.71
  C 297.09 148.65 297.79 147.86 296.47 147.63
  Z
  M 382.87 152.61
  C 386.99 147.10 383.73 140.40 378.20 137.66
  A 1.08 1.01 -43.0 0 0 377.29 137.66
  Q 363.19 144.35 347.76 146.73
  C 346.26 146.97 343.35 147.03 341.45 147.80
  Q 339.88 148.44 341.56 148.66
  C 352.31 150.06 363.61 152.55 372.83 158.78
  A 1.08 1.05 53.7 0 0 373.73 158.93
  Q 379.37 157.28 382.87 152.61
  Z
  M 370.33 159.20
  Q 361.45 154.25 351.52 152.18
  C 325.43 146.75 292.22 146.87 267.79 159.05
  Q 265.79 160.05 267.89 160.82
  C 299.62 172.41 338.49 171.58 370.18 160.78
  Q 372.04 160.15 370.33 159.20
  Z
  M 262.94 163.69
  C 258.48 172.51 268.25 178.51 275.48 179.97
  A 1.14 1.10 -57.1 0 0 276.38 179.76
  Q 286.89 171.92 300.08 170.89
  C 301.21 170.80 300.71 170.02 299.95 169.95
  Q 283.89 168.43 268.67 163.06
  C 266.51 162.30 264.39 160.82 262.94 163.69
  Z
  M 362.97 180.01
  C 369.65 178.46 380.60 171.90 375.04 163.34
  Q 373.83 161.48 371.76 162.27
  Q 356.28 168.16 338.80 169.98
  C 338.71 169.99 337.39 170.62 338.57 170.73
  Q 351.41 171.89 361.56 179.71
  A 1.71 1.68 -32.6 0 0 362.97 180.01
  Z
  M 279.24 180.32
  Q 278.74 181.38 279.82 181.67
  Q 319.15 192.31 358.13 181.86
  Q 360.16 181.31 358.58 179.93
  C 353.25 175.28 342.63 172.86 335.76 171.96
  C 318.70 169.71 295.35 170.10 280.13 179.34
  A 2.35 2.34 -2.9 0 0 279.24 180.32
  Z
  M 294.81 195.49
  Q 297.93 190.05 303.72 189.06
  C 306.44 188.60 303.49 188.14 303.14 188.11
  Q 291.28 187.03 277.94 182.99
  A 0.76 0.74 -75.0 0 0 276.99 183.55
  C 275.37 191.03 288.82 194.65 293.76 195.94
  A 0.94 0.93 21.7 0 0 294.81 195.49
  Z
  M 344.22 195.89
  C 348.44 194.95 364.56 190.11 360.82 183.38
  A 0.62 0.60 -23.2 0 0 360.09 183.10
  Q 347.03 187.30 333.34 188.38
  Q 332.71 188.43 333.53 188.63
  C 337.11 189.50 341.99 191.34 343.14 195.25
  A 0.92 0.92 -14.2 0 0 344.22 195.89
  Z
  M 297.09 195.10
  A 1.21 1.13 -69.2 0 0 297.82 196.88
  Q 319.03 200.62 340.24 196.96
  A 0.92 0.83 2.1 0 0 340.94 196.37
  C 343.46 188.13 302.68 185.56 297.09 195.10
  Z
  M 331.58 200.00
  C 319.97 200.79 313.81 200.64 301.82 199.55
  Q 301.28 199.50 301.73 199.77
  Q 303.58 200.84 306.75 201.47
  Q 322.85 204.65 337.34 199.79
  A 0.48 0.37 -16.5 0 0 337.68 199.33
  C 337.57 198.84 337.11 199.05 336.81 199.25
  C 335.02 200.46 333.20 199.89 331.58 200.00
  Z"
/>
<path fill="#ff0000" d="
  M 336.31 72.21
  C 337.29 72.48 336.46 72.87 336.10 72.83
  Q 319.65 71.12 311.49 71.79
  C 310.67 71.86 301.04 73.45 301.42 72.53
  A 1.20 0.74 -4.3 0 1 302.17 71.99
  Q 319.29 67.51 336.31 72.21
  Z"
/>
<path fill="#ff0000" d="
  M 340.01 78.34
  C 333.73 84.18 318.81 83.34 309.26 82.53
  C 305.12 82.18 300.97 80.99 298.02 78.55
  C 296.37 77.18 296.94 75.55 299.01 75.26
  Q 319.01 72.51 339.01 75.19
  Q 342.85 75.70 340.01 78.34
  Z"
/>
<path fill="#ff0000" d="
  M 342.99 77.75
  L 343.05 76.58
  A 0.73 0.41 10.7 0 1 343.91 76.29
  C 349.42 77.63 361.62 81.05 361.44 88.17
  A 0.95 0.94 -81.4 0 1 360.24 89.06
  Q 347.83 85.62 335.04 84.14
  C 334.44 84.07 333.80 83.44 335.05 83.22
  Q 339.87 82.39 342.65 78.60
  A 1.79 1.01 -38.8 0 0 342.99 77.75
  Z"
/>
<path fill="#ff0000" d="
  M 278.32 84.08
  Q 281.26 81.45 281.35 81.39
  Q 287.34 77.80 294.22 76.55
  A 0.62 0.61 71.1 0 1 294.86 76.87
  Q 297.53 82.02 303.23 83.28
  Q 303.87 83.43 303.34 83.80
  Q 302.47 84.41 301.50 84.50
  Q 289.89 85.56 278.75 89.04
  A 1.36 1.32 -13.6 0 1 277.02 88.02
  Q 276.60 85.63 278.32 84.08
  Z"
/>
<path fill="#ff0000" d="
  M 358.80 90.94
  Q 360.69 91.53 358.99 92.54
  Q 348.23 98.95 335.65 100.18
  C 316.45 102.08 297.10 102.38 280.55 93.22
  Q 277.21 91.37 280.88 90.33
  C 297.11 85.71 314.91 85.30 331.00 86.00
  Q 345.24 86.62 358.80 90.94
  Z"
/>
<path fill="#ff0000" d="
  M 361.50 92.25
  L 361.56 92.06
  A 0.22 0.19 17.2 0 1 361.81 91.95
  C 368.54 93.65 382.67 101.43 374.32 110.23
  A 1.26 1.11 31.1 0 1 373.01 110.47
  Q 355.52 103.68 336.76 102.69
  A 0.45 0.23 6.7 0 1 336.29 102.38
  C 336.30 102.35 344.25 100.62 345.81 100.26
  Q 354.41 98.29 361.21 92.63
  A 0.90 0.45 -26.3 0 0 361.50 92.25
  Z"
/>
<path fill="#ff0000" d="
  M 264.42 110.46
  C 255.96 101.89 268.51 94.03 275.89 92.25
  A 1.01 1.01 -31.4 0 1 276.77 92.45
  C 283.76 98.24 292.44 100.74 301.23 102.39
  C 302.22 102.57 301.35 102.89 301.15 102.90
  Q 282.47 103.46 265.24 110.62
  A 0.75 0.73 -33.4 0 1 264.42 110.46
  Z"
/>
<path fill="#ff0000" d="
  M 371.12 111.96
  Q 372.37 112.44 371.17 113.05
  Q 354.23 121.66 334.55 122.84
  C 311.74 124.21 288.53 123.61 267.51 113.31
  Q 266.00 112.57 267.54 111.91
  C 287.94 103.11 310.98 103.36 334.98 104.45
  Q 353.65 105.30 371.12 111.96
  Z"
/>
<path fill="#ff0000" d="
  M 298.53 124.12
  C 298.69 124.14 300.18 124.20 300.33 124.39
  Q 300.71 124.88 300.02 124.91
  Q 279.66 125.63 261.46 134.66
  A 1.47 1.20 40.8 0 1 260.28 134.63
  C 248.10 129.05 254.46 116.74 264.29 113.53
  A 1.08 1.07 -37.1 0 1 265.19 113.65
  C 274.49 119.83 287.30 122.75 298.53 124.12
  Z"
/>
<path fill="#ff0000" d="
  M 382.56 130.81
  Q 380.20 133.93 377.53 134.87
  A 1.21 1.11 47.5 0 1 376.61 134.79
  C 364.73 128.51 351.93 125.84 338.67 124.74
  C 338.20 124.70 337.94 124.36 338.71 124.27
  C 349.52 123.01 363.51 119.95 373.09 113.78
  A 1.08 1.04 -52.9 0 1 373.98 113.64
  C 381.31 115.75 388.29 123.28 382.56 130.81
  Z"
/>
<path fill="#ff0000" d="
  M 374.33 135.70
  Q 375.69 136.44 374.27 137.05
  C 346.95 148.90 312.26 149.35 283.48 143.33
  Q 273.18 141.18 263.55 136.96
  Q 262.27 136.39 263.52 135.76
  C 276.19 129.32 293.31 126.31 306.31 126.07
  C 327.44 125.69 342.37 125.77 360.02 130.15
  Q 367.53 132.01 374.33 135.70
  Z"
/>
<path fill="#ff0000" d="
  M 296.47 147.63
  C 297.79 147.86 297.09 148.65 296.39 148.71
  Q 279.43 150.35 264.72 158.79
  A 1.06 0.99 -46.9 0 1 263.82 158.85
  Q 258.09 156.38 255.80 153.22
  C 251.52 147.31 254.05 140.55 260.30 137.70
  A 1.13 1.03 43.6 0 1 261.21 137.72
  C 272.85 143.35 283.88 145.44 296.47 147.63
  Z"
/>
<path fill="#ff0000" d="
  M 382.87 152.61
  Q 379.37 157.28 373.73 158.93
  A 1.08 1.05 53.7 0 1 372.83 158.78
  C 363.61 152.55 352.31 150.06 341.56 148.66
  Q 339.88 148.44 341.45 147.80
  C 343.35 147.03 346.26 146.97 347.76 146.73
  Q 363.19 144.35 377.29 137.66
  A 1.08 1.01 -43.0 0 1 378.20 137.66
  C 383.73 140.40 386.99 147.10 382.87 152.61
  Z"
/>
<path fill="#ff0000" d="
  M 370.33 159.20
  Q 372.04 160.15 370.18 160.78
  C 338.49 171.58 299.62 172.41 267.89 160.82
  Q 265.79 160.05 267.79 159.05
  C 292.22 146.87 325.43 146.75 351.52 152.18
  Q 361.45 154.25 370.33 159.20
  Z"
/>
<path fill="#ff0000" d="
  M 262.94 163.69
  C 264.39 160.82 266.51 162.30 268.67 163.06
  Q 283.89 168.43 299.95 169.95
  C 300.71 170.02 301.21 170.80 300.08 170.89
  Q 286.89 171.92 276.38 179.76
  A 1.14 1.10 -57.1 0 1 275.48 179.97
  C 268.25 178.51 258.48 172.51 262.94 163.69
  Z"
/>
<path fill="#ff0000" d="
  M 375.04 163.34
  C 380.60 171.90 369.65 178.46 362.97 180.01
  A 1.71 1.68 -32.6 0 1 361.56 179.71
  Q 351.41 171.89 338.57 170.73
  C 337.39 170.62 338.71 169.99 338.80 169.98
  Q 356.28 168.16 371.76 162.27
  Q 373.83 161.48 375.04 163.34
  Z"
/>
<path fill="#ff0000" d="
  M 279.24 180.32
  A 2.35 2.34 -2.9 0 1 280.13 179.34
  C 295.35 170.10 318.70 169.71 335.76 171.96
  C 342.63 172.86 353.25 175.28 358.58 179.93
  Q 360.16 181.31 358.13 181.86
  Q 319.15 192.31 279.82 181.67
  Q 278.74 181.38 279.24 180.32
  Z"
/>
<path fill="#ff0000" d="
  M 294.81 195.49
  A 0.94 0.93 21.7 0 1 293.76 195.94
  C 288.82 194.65 275.37 191.03 276.99 183.55
  A 0.76 0.74 -75.0 0 1 277.94 182.99
  Q 291.28 187.03 303.14 188.11
  C 303.49 188.14 306.44 188.60 303.72 189.06
  Q 297.93 190.05 294.81 195.49
  Z"
/>
<path fill="#ff0000" d="
  M 360.82 183.38
  C 364.56 190.11 348.44 194.95 344.22 195.89
  A 0.92 0.92 -14.2 0 1 343.14 195.25
  C 341.99 191.34 337.11 189.50 333.53 188.63
  Q 332.71 188.43 333.34 188.38
  Q 347.03 187.30 360.09 183.10
  A 0.62 0.60 -23.2 0 1 360.82 183.38
  Z"
/>
<path fill="#ff0000" d="
  M 297.09 195.10
  C 302.68 185.56 343.46 188.13 340.94 196.37
  A 0.92 0.83 2.1 0 1 340.24 196.96
  Q 319.03 200.62 297.82 196.88
  A 1.21 1.13 -69.2 0 1 297.09 195.10
  Z"
/>
<path fill="#ff0000" d="
  M 301.82 199.55
  C 313.81 200.64 319.97 200.79 331.58 200.00
  C 333.20 199.89 335.02 200.46 336.81 199.25
  C 337.11 199.05 337.57 198.84 337.68 199.33
  A 0.48 0.37 -16.5 0 1 337.34 199.79
  Q 322.85 204.65 306.75 201.47
  Q 303.58 200.84 301.73 199.77
  Q 301.28 199.50 301.82 199.55
  Z"
/>
<path fill="#e0ad9d" fill-opacity="0.973" d="
  M 236.29 214.25
  Q 238.31 217.83 241.96 219.75
  Q 237.17 219.02 236.29 214.25
  Z"
/>
<path fill="#e0ad9d" fill-opacity="0.973" d="
  M 401.96 214.75
  Q 401.31 218.26 398.00 219.46
  L 401.96 214.75
  Z"
/>
<path fill="#000000" d="
  M 259.25 243.96
  Q 258.68 245.62 260.25 245.46
  L 275.25 270.96
  Q 274.48 272.56 276.25 272.46
  C 277.66 272.03 277.04 271.01 277.03 270.14
  Q 276.92 253.48 277.07 236.64
  A 0.65 0.43 -89.4 0 1 277.50 236.00
  L 292.25 236.00
  A 0.81 0.75 -90.0 0 1 293.00 236.81
  L 293.00 295.50
  A 1.48 1.31 90.0 0 1 291.69 296.98
  L 275.00 297.01
  A 1.58 1.32 71.7 0 1 273.78 296.25
  Q 263.98 279.77 254.25 263.28
  Q 253.31 261.68 253.00 260.89
  A 0.85 0.26 69.6 0 0 252.50 260.24
  L 252.07 260.31
  A 0.71 0.15 89.7 0 0 251.93 261.00
  L 252.03 296.19
  A 0.84 0.80 -0.0 0 1 251.19 296.99
  L 236.50 297.01
  A 0.76 0.50 90.0 0 1 236.00 296.25
  L 236.00 236.75
  A 0.75 0.75 0.0 0 1 236.75 236.00
  L 253.50 236.00
  A 1.94 1.82 -14.2 0 1 255.14 236.91
  L 259.25 243.96
  Z"
/>
<path fill="#000000" d="
  M 320.28 282.45
  Q 319.88 282.99 320.56 283.00
  L 344.25 283.00
  A 0.75 0.75 0.0 0 1 345.00 283.75
  L 345.00 296.00
  A 0.92 0.75 90.0 0 1 344.25 296.92
  L 301.69 297.05
  A 0.67 0.62 -0.4 0 1 301.02 296.44
  L 300.88 284.75
  A 2.30 0.95 -44.8 0 1 301.42 283.46
  Q 311.24 269.80 320.72 256.95
  C 321.84 255.43 322.92 253.30 324.78 251.78
  Q 325.64 251.08 324.25 251.06
  L 301.50 250.84
  A 0.65 0.50 -89.6 0 1 301.01 250.19
  L 301.00 237.00
  A 1.02 1.00 -90.0 0 1 302.00 235.98
  L 344.31 236.03
  A 0.72 0.56 87.3 0 1 344.88 236.70
  C 345.20 240.67 345.89 247.35 343.42 250.78
  Q 331.93 266.74 320.28 282.45
  Z"
/>
<path fill="#000000" d="
  M 393.21 264.75
  Q 390.79 265.62 390.00 268.04
  L 384.97 270.11
  A 0.67 0.67 -28.6 0 0 384.67 271.11
  L 402.12 295.92
  Q 402.87 296.99 401.44 296.99
  L 384.75 297.00
  A 2.52 2.30 72.8 0 1 382.69 295.79
  L 370.54 276.00
  Q 371.60 274.65 369.96 274.50
  Q 368.98 274.18 368.98 275.25
  Q 369.02 285.63 369.00 296.02
  A 0.72 0.57 89.6 0 1 368.44 296.74
  L 353.49 296.98
  A 1.49 1.47 89.4 0 1 352.00 295.50
  L 352.00 237.00
  A 1.02 0.95 -0.3 0 1 353.01 236.05
  Q 364.67 235.88 375.54 236.27
  C 385.10 236.60 390.87 238.38 394.57 247.16
  Q 398.56 256.63 393.21 264.75
  Z
  M 380.04 256.25
  Q 381.77 255.00 380.04 253.75
  C 379.26 249.16 373.03 249.27 369.59 250.24
  A 0.80 0.78 -7.7 0 0 369.00 251.00
  L 369.00 260.25
  A 0.72 0.49 6.4 0 0 369.61 260.77
  C 372.92 261.32 380.64 261.46 380.04 256.25
  Z"
/>
<path fill="#535953" fill-opacity="0.996" d="
  M 259.25 243.96
  L 260.25 245.46
  Q 258.68 245.62 259.25 243.96
  Z"
/>
<path fill="#535953" fill-opacity="0.996" d="
  M 380.04 253.75
  Q 381.77 255.00 380.04 256.25
  L 380.04 253.75
  Z"
/>
<path fill="#e0ad9d" fill-opacity="0.973" d="
  M 393.21 264.75
  Q 392.17 266.95 390.00 268.04
  Q 390.79 265.62 393.21 264.75
  Z"
/>
<path fill="#535953" fill-opacity="0.996" d="
  M 275.25 270.96
  L 276.25 272.46
  Q 274.48 272.56 275.25 270.96
  Z"
/>
<path fill="#535953" fill-opacity="0.996" d="
  M 370.54 276.00
  L 369.96 274.50
  Q 371.60 274.65 370.54 276.00
  Z"
/>
<path fill="#000000" d="
  M 389.42 321.27
  C 385.27 308.81 369.98 320.20 380.99 323.20
  C 391.51 326.06 403.53 329.64 402.21 343.01
  C 400.85 356.79 385.40 358.71 374.41 355.82
  Q 364.38 353.18 361.34 343.41
  Q 360.61 341.06 362.91 340.53
  L 373.23 338.17
  Q 374.98 337.77 375.52 339.82
  C 378.86 352.67 396.96 342.40 383.18 336.84
  C 378.70 335.03 372.99 333.45 369.51 331.32
  C 361.54 326.45 360.34 315.96 367.08 309.52
  C 371.79 305.02 378.38 304.21 384.75 304.66
  C 392.67 305.21 398.57 308.73 402.02 316.03
  Q 403.27 318.69 401.33 319.34
  Q 395.79 321.22 390.02 321.86
  A 0.81 0.47 74.8 0 1 389.42 321.27
  Z"
/>
<path fill="#000000" d="
  M 299.00 347.00
  L 280.75 347.00
  A 0.98 0.80 -79.3 0 0 279.94 347.68
  L 277.68 354.69
  A 2.08 1.89 8.3 0 1 275.75 355.99
  L 236.50 356.00
  A 0.50 0.50 0.0 0 1 236.00 355.50
  L 236.00 305.50
  A 0.50 0.50 0.0 0 1 236.50 305.00
  L 248.50 305.00
  A 0.75 0.50 90.0 0 1 249.00 305.75
  L 249.00 343.50
  A 0.50 0.50 0.0 0 0 249.50 344.00
  L 262.75 344.00
  A 1.39 1.24 1.4 0 1 264.15 345.31
  L 263.85 351.26
  A 0.80 0.47 -82.4 0 0 264.16 351.99
  C 264.58 352.15 264.71 351.95 264.83 351.59
  Q 273.09 328.66 281.49 305.96
  A 1.45 1.20 -78.1 0 1 282.69 305.01
  L 298.00 305.03
  A 1.07 0.60 74.6 0 1 298.72 305.76
  L 316.96 355.27
  A 0.53 0.46 78.5 0 1 316.56 355.98
  L 303.69 355.98
  A 0.92 0.30 69.3 0 1 303.16 355.32
  L 299.90 347.44
  A 1.05 0.69 -7.1 0 0 299.00 347.00
  Z
  M 284.07 335.61
  A 0.30 0.30 11.8 0 0 284.35 336.01
  L 295.97 335.99
  A 0.30 0.30 79.6 0 0 296.25 335.59
  L 290.41 320.24
  A 0.30 0.30 -44.5 0 0 289.85 320.24
  L 284.07 335.61
  Z"
/>
<path fill="#000000" d="
  M 352.44 329.73
  C 358.23 331.69 360.81 338.79 359.65 344.37
  Q 357.09 356.61 343.23 356.21
  Q 332.76 355.90 322.23 356.03
  A 1.28 1.22 89.8 0 1 321.00 354.75
  L 321.00 305.75
  A 0.70 0.69 89.6 0 1 321.68 305.05
  C 330.00 304.86 346.55 303.24 352.71 309.89
  C 357.56 315.14 357.85 323.50 352.18 328.46
  Q 351.21 329.32 352.44 329.73
  Z
  M 341.26 317.19
  Q 338.04 316.30 334.75 317.07
  A 0.91 0.55 -9.7 0 0 334.03 317.69
  L 334.03 324.31
  A 0.78 0.59 3.6 0 0 334.74 324.92
  C 338.75 325.29 346.48 323.82 342.11 317.83
  A 1.79 1.32 73.4 0 0 341.26 317.19
  Z
  M 335.26 345.13
  Q 339.97 345.10 344.51 343.76
  A 1.54 0.87 -71.3 0 0 345.25 343.10
  C 350.24 335.03 338.90 334.54 334.61 335.23
  A 0.72 0.49 -6.4 0 0 334.00 335.75
  L 333.99 344.00
  A 1.27 1.13 0.0 0 0 335.26 345.13
  Z"
/>
</svg>
